<svg width="1435" height="877" viewBox="0 0 1435 877" fill="none" xmlns="http://www.w3.org/2000/svg">
<g clip-path="url(#clip0_2_36)" filter="url(#filter0_d_2_36)">
<rect width="1435" height="877" transform="translate(4)" fill="#FEDA75"/>
<g filter="url(#filter1_d_2_36)">
<path fill-rule="evenodd" clip-rule="evenodd" d="M643.638 1080.92C504.708 1251.04 794.015 1552.56 634.005 1700.08C495.586 1827.7 367.878 1493.93 197.632 1492.12C9.20474 1490.12 -229.829 1828.32 -350.367 1689.65C-478.616 1542.1 -213.367 1278.93 -175.196 1063.2C-156.507 957.575 -172.593 858.822 -185.279 756.633C-212.023 541.203 -414.309 327.503 -290.847 131.576C-182.742 -39.9802 64.0416 91.9918 247.07 70.5203C405.921 51.8853 601.228 -88.6185 714.012 13.6912C836.519 124.821 433.292 362.216 542.001 488.5C690.17 660.626 1653.87 535.983 1598 785.5C1536.79 1058.87 823.709 860.412 643.638 1080.92Z" fill="#4F5BD5"/>
</g>
<g filter="url(#filter2_d_2_36)">
<path fill-rule="evenodd" clip-rule="evenodd" d="M1724.52 -439.621C1852.26 -310.466 1660.53 -118.267 1787.68 11.2287C1906.17 131.906 2177.61 35.4081 2304.39 150.939C2422.41 258.485 2502.87 479.279 2370.51 542.355C2197.72 624.703 1950.87 439.257 1734.1 422.72C1662.94 417.292 1616.94 467.328 1550.68 479.814C1455.11 497.822 1350.07 563.786 1261.09 511.852C1171.96 459.832 1256.87 341.267 1191.45 270.141C1095.53 165.84 860.988 151.798 819.544 31.7464C783.306 -73.2248 969.75 -114.471 1029.03 -200.339C1108.56 -315.529 1073.55 -504.403 1225.87 -556.808C1373.12 -607.47 1610.44 -554.964 1724.52 -439.621Z" fill="#4F5BD5"/>
</g>
<g filter="url(#filter3_i_2_36)">
<path fill-rule="evenodd" clip-rule="evenodd" d="M554.276 439.399C541.987 379.796 619.482 332.057 672.354 286.259C717.635 247.036 767.767 214.177 830.6 200.041C902.32 183.906 987.53 165.58 1041.9 203.119C1095.41 240.07 1068 310.716 1075.02 368.806C1081.88 425.638 1131.5 490.884 1081.88 534.106C1032.01 577.533 947.859 540.394 876.872 541.376C823.954 542.108 772.832 554.337 724.477 539.052C656.235 517.48 566.505 498.709 554.276 439.399Z" fill="#FA7E1E"/>
</g>
<g filter="url(#filter4_d_2_36)">
<path fill-rule="evenodd" clip-rule="evenodd" d="M6.47595 -126.918C51.568 -128.841 95.0675 -131.244 139.775 -137.549C194.237 -145.229 245.135 -173.687 299.81 -168.285C364.029 -161.94 424.624 -137.537 479.532 -103.982C549.253 -61.3753 676.431 -26.935 662.946 53.6308C646.329 152.908 466.76 142.08 423.13 232.991C390.261 301.479 498.778 380.932 471.806 451.903C447.729 515.258 363.907 533.835 299.981 557.034C237.958 579.543 204.852 529.694 139.126 525.029C74.3901 520.434 -20.4973 592.127 -80.6487 568.092C-146.129 541.927 -227.559 496.383 -264.129 436.351C-301.289 375.35 -252.808 295.152 -263.855 224.564C-274.573 156.077 -341.836 97.5009 -327.8 29.4931C-313.893 -37.885 -254.626 -94.1088 -192.036 -123.395C-131.275 -151.826 -60.4919 -124.061 6.47595 -126.918Z" fill="#962FBF"/>
</g>
<path fill-rule="evenodd" clip-rule="evenodd" d="M-38.5596 940.385C-90.6376 873.544 -130.901 745.727 -61.6164 696.947C15.2592 642.823 107.371 751.122 198.729 773.322C232.718 781.582 269.566 765.752 299.039 784.588C329.744 804.211 349.78 837.395 355.337 873.409C360.814 908.909 337.967 938.887 328.179 973.448C307.742 1045.61 343.042 1178.02 268.115 1181.39C189.249 1184.93 221.778 1029.79 159.706 981.011C104.565 937.678 4.54307 995.707 -38.5596 940.385Z" fill="#4F5BD5"/>
<g filter="url(#filter5_d_2_36)">
<path fill-rule="evenodd" clip-rule="evenodd" d="M319.404 269.029C283.55 331.3 394.679 441.202 341.959 488.428C289.253 535.642 151.337 453.644 86.5772 477.594C-4.45504 511.26 -74.326 693.755 -153.263 640.38C-238.189 582.955 -157.153 429.682 -143.96 321.712C-138.15 274.165 -78.7184 230.673 -98.021 188.303C-148.013 78.5681 -355.712 44.8577 -324.961 -75.5923C-299.073 -176.99 -134.823 -25.4391 -37.8221 -47.4909C27.118 -62.2541 51.5849 -170.822 117.49 -176.177C182.373 -181.449 220.056 -102.287 277.753 -73.1338C364.148 -29.479 527.336 -64.194 539.672 37.1471C552.848 145.385 374.267 173.745 319.404 269.029Z" fill="#D62976"/>
</g>
<g filter="url(#filter6_d_2_36)">
<path fill-rule="evenodd" clip-rule="evenodd" d="M-185.99 -81.433C-121.851 -74.5509 -125.761 63.3061 -62.4249 77.9037C13.304 95.3576 77.2764 -45.0096 146.04 -4.9069C201.968 27.7103 124.479 123.895 131.337 190.905C137.642 252.521 204.017 308.918 183.97 365.739C164.132 421.969 95.6691 440.058 40.0153 449.748C-6.03273 457.766 -49.946 404.586 -95.6141 414.421C-164.074 429.165 -206.866 541.335 -274.741 517.536C-334.384 496.624 -320.113 395.438 -335.617 330.27C-348.144 277.619 -368.427 224.584 -356.737 172.894C-345.559 123.471 -300.814 96.065 -273.422 55.2641C-242.706 9.51345 -239.575 -87.1826 -185.99 -81.433Z" fill="#FA7E1E"/>
</g>
<g filter="url(#filter7_d_2_36)">
<path fill-rule="evenodd" clip-rule="evenodd" d="M369.48 133.389C364.119 165.911 313.115 145.543 287.632 163.65C259.374 183.729 251.56 239.934 219.085 240.253C187.168 240.567 160.842 200.503 160.907 164.894C160.968 131.894 210.57 123.162 219.36 90.9884C228.359 58.0513 180.444 13.2467 207.225 -4.63487C233.85 -22.4124 247.442 37.3032 270.978 56.5239C280.689 64.4544 292.676 65.5074 302.542 73.2062C326.982 92.2777 375.113 99.2173 369.48 133.389Z" fill="#FA7E1E"/>
</g>
<g filter="url(#filter8_d_2_36)">
<path fill-rule="evenodd" clip-rule="evenodd" d="M449.065 64.4676C447.683 71.1673 438.45 74.7894 428.288 77.7139C415.519 81.3882 402.947 88.2688 384.498 83.0478C366.066 77.8318 363.302 65.1939 351.155 55.8858C337.745 45.6103 308.828 35.8445 310.802 26.5766C312.771 17.336 339.48 19.7045 358.697 20.4858C371.81 21.019 385.184 26.1389 398.991 30.1623C411.953 33.9395 426.149 36.4698 435.477 42.8603C445.741 49.8918 450.411 57.9433 449.065 64.4676Z" fill="#FA7E1E"/>
</g>
<g filter="url(#filter9_d_2_36)">
<path fill-rule="evenodd" clip-rule="evenodd" d="M-187.034 152.85C-143.228 140.81 -115.676 213.196 -72.0024 200.384C-27.7843 187.412 -27.0677 106.077 17.1235 92.9579C54.1579 81.9636 93.1973 113.89 106.45 147.407C119.752 181.051 76.231 221.812 82.4528 258.185C90.449 304.93 180.745 340.248 145.895 378.002C105.868 421.364 39.6944 370.053 -14.4447 363.157C-32.8625 360.81 -48.3031 345.625 -67.0209 350.879C-98.5463 359.726 -119.616 399.78 -151.504 401.623C-188.899 403.783 -229.169 390.968 -248.625 361.37C-268.502 331.133 -262.538 287.462 -251.38 249.686C-240.436 212.635 -224.113 163.041 -187.034 152.85Z" fill="#FEDA75"/>
</g>
<g filter="url(#filter10_d_2_36)">
<path fill-rule="evenodd" clip-rule="evenodd" d="M-163.971 276.686C-174.086 243.332 -180.131 206.014 -170.177 175.909C-160.581 146.891 -136.872 129.179 -112.318 120.477C-91.6936 113.168 -68.7231 124.94 -46.5102 132.083C-30.7616 137.147 -17.685 152.576 -1.82395 156.008C25.6739 161.958 58.9121 132.281 78.6437 159.164C96.808 183.911 58.585 215.748 64.9526 246.985C73.9676 291.208 141.6 333.675 120.86 366.257C98.8693 400.806 47.3206 333.682 9.64795 333.871C-9.77293 333.969 -18.7063 362.839 -37.3917 367.053C-62.2497 372.66 -89.9992 378.732 -113.826 361.721C-138.691 343.97 -154.015 309.516 -163.971 276.686Z" fill="#4F5BD5"/>
</g>
<g filter="url(#filter11_i_2_36)">
<path fill-rule="evenodd" clip-rule="evenodd" d="M631.323 410.308C633.887 358.502 715.638 344.476 757.565 307.03C790.243 277.844 802.283 230.513 846.336 218.272C895.348 204.652 952.245 213.218 989.821 242.488C1025.95 270.634 1026.82 317.931 1029.52 360.968C1032.02 400.845 1040.32 449.523 1004.4 474.983C969.434 499.766 921.096 461.946 877.378 468.8C829.75 476.268 793.346 526.253 747.26 515.297C691.231 501.978 628.77 461.911 631.323 410.308Z" fill="#D62976"/>
</g>
<g filter="url(#filter12_i_2_36)">
<path fill-rule="evenodd" clip-rule="evenodd" d="M884.194 454.172C857.619 461.105 836.869 481.664 810.14 483.101C763.425 485.613 704.096 495.543 682.019 465.044C659.477 433.904 684.778 386.002 714.996 351.665C741.405 321.657 786.063 311.324 827.376 299.874C862.678 290.09 903.878 276.184 930.431 291.957C955.61 306.913 933.618 343.825 943.401 368.794C953.541 394.674 1005.79 410.121 987.221 436.902C968.373 464.081 919.517 444.956 884.194 454.172Z" fill="#962FBF"/>
</g>
<g filter="url(#filter13_i_2_36)">
<path fill-rule="evenodd" clip-rule="evenodd" d="M825.025 331.568C856.271 323.565 899.029 275.922 914.656 305.42C930.21 334.782 872.968 354.887 851.705 381.933C844.756 390.772 839.946 399.765 833.312 408.887C818.56 429.17 812.73 461.862 790.003 466.773C764.52 472.28 735.53 457.321 724.384 432.427C713.435 407.971 722.532 374.926 738.94 352.724C752.004 335.048 775.888 340.756 795.737 335.878C805.777 333.411 815.001 334.136 825.025 331.568Z" fill="#4F5BD5"/>
</g>
<g filter="url(#filter14_i_2_36)">
<path fill-rule="evenodd" clip-rule="evenodd" d="M891.097 440.836C883.026 438.788 886.323 426.303 882.167 419.325C878.559 413.268 869.806 410.545 868.953 403.658C867.877 394.974 871.372 386.453 877.283 379.923C885.66 370.672 895.254 358.958 908.079 360.445C921.168 361.963 928.887 375.326 934.986 386.615C940.371 396.582 945.645 409.226 939.474 418.556C933.631 427.39 918.715 421.567 908.872 426.1C901.519 429.486 899.075 442.86 891.097 440.836Z" fill="#4F5BD5"/>
</g>
<g filter="url(#filter15_d_2_36)">
<path fill-rule="evenodd" clip-rule="evenodd" d="M-260.614 924.329C-245.408 787.518 -324.778 600.848 -211.287 522.71C-108.374 451.855 3.18725 645.945 126.705 657.662C266.178 670.893 404.444 542.224 534.536 593.46C670.463 646.993 838.905 781.676 806.933 925.566C768.301 1099.44 507.99 1108.88 390.249 1242.85C335.781 1304.82 390.507 1427.88 323.406 1475.73C255.401 1524.22 160.445 1443.54 79.8183 1464.2C-20.9918 1490.03 -87.561 1600.93 -191.202 1607.59C-324.953 1616.19 -686.476 1595.13 -710.244 1463.03C-739.059 1302.89 -355.089 1268.71 -278.155 1124.35C-245.945 1063.91 -268.161 992.238 -260.614 924.329Z" fill="#962FBF"/>
</g>
<g filter="url(#filter16_d_2_36)">
<path fill-rule="evenodd" clip-rule="evenodd" d="M1240.86 1061.5C1121.85 1070.65 1007.98 1069.87 944.262 1020.21C837.876 937.296 894.447 909.777 877.501 857.191C857.33 794.599 771.493 720.661 874.922 670.622C979.669 619.946 1145.63 649.163 1274.5 665.123C1350.25 674.503 1355.74 725.569 1427.56 739.064C1557.32 763.447 1774.28 711.394 1835.29 770.498C1892.18 825.599 1770.9 914.222 1643.42 948.153C1414.59 1000.33 1368.5 1051.68 1240.86 1061.5Z" fill="#962FBF"/>
</g>
<g filter="url(#filter17_d_2_36)">
<path fill-rule="evenodd" clip-rule="evenodd" d="M768.283 924.837C774.593 847.804 629.403 773.702 503.579 722.265C413.46 685.425 310.542 707.571 208.022 695.805C122.111 685.945 34.6315 644.774 -39.5014 659.937C-120.917 676.589 -135.589 730.923 -173.038 773.745C-243.879 854.751 -444.945 923.011 -351.106 1016.25C-260.58 1106.2 -25.9232 1082.21 144.818 1089.57C268.382 1094.9 374.276 1078.97 476.576 1051.94C594.575 1020.76 761.947 1002.19 768.283 924.837Z" fill="#D62976"/>
</g>
<g filter="url(#filter18_d_2_36)">
<path fill-rule="evenodd" clip-rule="evenodd" d="M-87.7739 197.141C-77.5191 182.599 -58.8719 174.39 -41.7326 173.438C-25.8456 172.555 -11.7367 181.988 -0.228895 192.277C8.55009 200.127 6.26666 215.714 14.7232 223.914C24.4171 233.314 43.5141 229.777 50.4788 241.446C57.6913 253.53 57.5127 270.893 50.6523 284.112C43.8395 297.241 28.7771 303.699 15.2684 309.296C3.74993 314.069 -9.37341 317.88 -20.4912 313.591C-30.8577 309.592 -31.2988 294.142 -40.364 287.836C-48.5853 282.116 -61.0173 285.865 -69.0117 279.838C-80.0827 271.493 -90.7899 261.294 -93.9291 247.458C-97.6596 231.015 -97.9181 211.526 -87.7739 197.141Z" fill="#962FBF"/>
</g>
<g filter="url(#filter19_d_2_36)">
<path fill-rule="evenodd" clip-rule="evenodd" d="M999.353 -192.162C1028.34 -226.335 1057.61 -264.769 1115.13 -270.191C1171.65 -275.518 1249.07 -221.842 1308.98 -221.346C1379.37 -220.765 1408.67 -289.043 1485.91 -267.125C1557.87 -246.705 1621.74 -177.294 1665.19 -120.265C1705.84 -66.899 1678.22 -14.4316 1719.06 38.8967C1766.9 101.356 1878.46 138.492 1912.23 202.324C1943.8 262.006 1924.05 319.434 1884.32 351.277C1844.74 382.998 1762.72 366.548 1699.68 372.691C1648.58 377.67 1595.75 376.844 1546.26 384.219C1478.89 394.261 1432.01 468.236 1354.16 424.188C1268.28 375.594 1311.77 272.403 1237.94 209.753C1167.14 149.669 1050.87 171.966 983.531 109.67C924.536 55.0926 938.2 -10.9378 941.03 -64.9242C943.694 -115.734 968.707 -156.029 999.353 -192.162Z" fill="#962FBF"/>
</g>
<g filter="url(#filter20_d_2_36)">
<path fill-rule="evenodd" clip-rule="evenodd" d="M1382.99 -199.255C1414.21 -160.562 1316.35 -115.05 1323.37 -65.8271C1332.93 1.17819 1434.39 37.2047 1426.32 104.405C1419.27 163.058 1348.99 214.704 1289.98 211.932C1225.2 208.889 1201.88 117.298 1142.57 91.0768C1104.85 74.4038 1043.57 127.954 1021.38 93.195C996.029 53.4941 1079.22 2.373 1058.83 -40.0858C1030.11 -99.8797 917.675 -91.2843 901.839 -155.699C889.268 -206.836 953.871 -251.335 1001.24 -274.345C1045.42 -295.809 1099.89 -292.075 1145.61 -274.124C1183.5 -259.249 1187.63 -198.17 1226.45 -185.927C1277.43 -169.849 1349.42 -240.851 1382.99 -199.255Z" fill="#D62976"/>
</g>
<g filter="url(#filter21_d_2_36)">
<path fill-rule="evenodd" clip-rule="evenodd" d="M1475.02 41.5322C1521.72 17.7187 1575.74 102.423 1623.82 81.5309C1696.52 49.9454 1701.16 -96.2555 1780.25 -91.0948C1846.6 -86.7648 1804.61 38.2119 1838.33 95.5281C1867.57 145.239 1951.5 156.817 1959.67 213.91C1967.7 270.063 1924.66 329.085 1875.9 358.067C1829.73 385.507 1761.07 325.384 1718.04 357.519C1659.36 401.342 1692.39 560.291 1620 549.166C1545.61 537.734 1628.76 377.736 1567.27 334.347C1499.57 286.578 1375.81 404.669 1323.81 340.165C1280.89 286.916 1408.41 236.636 1439.31 175.615C1460.63 133.497 1432.96 62.9766 1475.02 41.5322Z" fill="#D62976"/>
</g>
<g filter="url(#filter22_d_2_36)">
<path fill-rule="evenodd" clip-rule="evenodd" d="M85.3321 59.9285C80.343 49.7639 55.3615 49.0967 60.5249 38.0805C65.9102 26.5908 86.07 39.532 97.7848 33.3604C108.892 27.5088 108.709 7.62205 120.957 6.24386C132.585 4.93547 139.823 17.9881 142.573 28.3207C144.927 37.1679 136.207 45.4847 133.87 54.7633C131.032 66.0281 136.651 79.084 127.671 87.4832C117.656 96.85 99.7823 103.408 89.2136 96.5297C78.4437 89.5206 90.8656 71.2023 85.3321 59.9285Z" fill="#FEDA75"/>
</g>
<g filter="url(#filter23_i_2_36)">
<path fill-rule="evenodd" clip-rule="evenodd" d="M1256.48 1186.88C1170.07 1184.82 1138.68 1074.21 1076 1014.68C1042.56 982.933 1004.89 961.711 979.112 923.486C938.428 863.165 857.462 801.134 887.172 734.719C916.662 668.795 1016.19 685.419 1088.18 679.668C1138.16 675.676 1191.59 675.332 1230.21 707.315C1263.87 735.194 1241.22 792.73 1267.15 827.908C1324.23 905.321 1466.5 927.802 1463.64 1023.94C1460.93 1115.23 1347.79 1189.06 1256.48 1186.88Z" fill="#4F5BD5"/>
</g>
<g filter="url(#filter24_i_2_36)">
<path fill-rule="evenodd" clip-rule="evenodd" d="M1345.03 733.855C1378.83 726.156 1401.92 766.074 1432.14 783.051C1448.26 792.106 1465 796.651 1478.78 808.977C1500.53 828.427 1538.11 844.58 1533.1 873.325C1528.12 901.857 1487.78 905.184 1460.36 914.502C1441.32 920.971 1420.58 926.36 1402.42 917.724C1386.59 910.196 1389.74 885.598 1376.19 874.472C1346.39 849.989 1288.86 855.244 1280.52 817.585C1272.59 781.824 1309.32 741.989 1345.03 733.855Z" fill="#4F5BD5"/>
</g>
<g filter="url(#filter25_i_2_36)">
<path fill-rule="evenodd" clip-rule="evenodd" d="M834.442 1164.19C824.268 1083.44 947.443 1051.81 973.007 974.532C1001.05 889.755 906.143 763.506 982.379 717.01C1055.51 672.41 1124.08 794.578 1198.48 837.019C1252.43 867.793 1345.54 866.585 1352.74 928.275C1360.37 993.581 1265.66 1016.98 1225.58 1069.09C1205.59 1095.08 1201.34 1126.96 1180.49 1152.25C1128.46 1215.33 1098.54 1319.41 1016.81 1322.24C933.239 1325.12 844.895 1247.16 834.442 1164.19Z" fill="#FEDA75"/>
</g>
<g filter="url(#filter26_d_2_36)">
<path fill-rule="evenodd" clip-rule="evenodd" d="M680.922 860.095C719.891 964.309 536.352 990.411 492.19 1086.25C443.217 1192.52 514.811 1370.18 420.282 1425.7C327.378 1480.26 182.976 1407.23 123.317 1302.88C68.0299 1206.18 198.553 1097.25 170.208 988.294C141.191 876.751 -74.3788 826.129 -26.0366 728.771C22.0244 631.98 162.179 783.941 263.382 800.648C305.138 807.541 341.998 790.476 383.819 796.43C487.418 811.18 639.977 750.596 680.922 860.095Z" fill="#FA7E1E"/>
</g>
<g filter="url(#filter27_d_2_36)">
<path fill-rule="evenodd" clip-rule="evenodd" d="M381.703 1039.17C462.566 1048.02 550.17 1053.21 612.767 1044.14C673.103 1035.4 700.213 1014.11 706.504 992.111C711.789 973.635 672.687 953.171 644.455 933.358C624.439 919.311 582.461 907.711 566.072 893.554C537.658 869.01 586.611 839.133 515.133 821.65C449.332 805.556 398.211 839.901 324.172 834.387C219.35 826.582 86.5832 766.374 24.2603 785.097C-41.824 804.949 137.896 850.641 157.978 884.314C168.331 901.673 107.969 909.822 108.62 926.547C109.486 948.797 110.877 973.634 162.281 994.833C215.923 1016.96 302.11 1030.46 381.703 1039.17Z" fill="#FEDA75"/>
</g>
</g>
<defs>
<filter id="filter0_d_2_36" x="0" y="0" width="1443" height="885" filterUnits="userSpaceOnUse" color-interpolation-filters="sRGB">
<feFlood flood-opacity="0" result="BackgroundImageFix"/>
<feColorMatrix in="SourceAlpha" type="matrix" values="0 0 0 0 0 0 0 0 0 0 0 0 0 0 0 0 0 0 127 0" result="hardAlpha"/>
<feOffset dy="4"/>
<feGaussianBlur stdDeviation="2"/>
<feComposite in2="hardAlpha" operator="out"/>
<feColorMatrix type="matrix" values="0 0 0 0 0 0 0 0 0 0 0 0 0 0 0 0 0 0 0.25 0"/>
<feBlend mode="normal" in2="BackgroundImageFix" result="effect1_dropShadow_2_36"/>
<feBlend mode="normal" in="SourceGraphic" in2="effect1_dropShadow_2_36" result="shape"/>
</filter>
<filter id="filter1_d_2_36" x="-395.113" y="-37.2799" width="2005.45" height="1772.44" filterUnits="userSpaceOnUse" color-interpolation-filters="sRGB">
<feFlood flood-opacity="0" result="BackgroundImageFix"/>
<feColorMatrix in="SourceAlpha" type="matrix" values="0 0 0 0 0 0 0 0 0 0 0 0 0 0 0 0 0 0 127 0" result="hardAlpha"/>
<feOffset dy="-4"/>
<feGaussianBlur stdDeviation="5"/>
<feComposite in2="hardAlpha" operator="out"/>
<feColorMatrix type="matrix" values="0 0 0 0 0 0 0 0 0 0 0 0 0 0 0 0 0 0 0.35 0"/>
<feBlend mode="normal" in2="BackgroundImageFix" result="effect1_dropShadow_2_36"/>
<feBlend mode="normal" in="SourceGraphic" in2="effect1_dropShadow_2_36" result="shape"/>
</filter>
<filter id="filter2_d_2_36" x="804.912" y="-582.111" width="1644" height="1159.45" filterUnits="userSpaceOnUse" color-interpolation-filters="sRGB">
<feFlood flood-opacity="0" result="BackgroundImageFix"/>
<feColorMatrix in="SourceAlpha" type="matrix" values="0 0 0 0 0 0 0 0 0 0 0 0 0 0 0 0 0 0 127 0" result="hardAlpha"/>
<feOffset dy="4"/>
<feGaussianBlur stdDeviation="5"/>
<feComposite in2="hardAlpha" operator="out"/>
<feColorMatrix type="matrix" values="0 0 0 0 0 0 0 0 0 0 0 0 0 0 0 0 0 0 0.35 0"/>
<feBlend mode="normal" in2="BackgroundImageFix" result="effect1_dropShadow_2_36"/>
<feBlend mode="normal" in="SourceGraphic" in2="effect1_dropShadow_2_36" result="shape"/>
</filter>
<filter id="filter3_i_2_36" x="552.975" y="181.065" width="550.714" height="378.169" filterUnits="userSpaceOnUse" color-interpolation-filters="sRGB">
<feFlood flood-opacity="0" result="BackgroundImageFix"/>
<feBlend mode="normal" in="SourceGraphic" in2="BackgroundImageFix" result="shape"/>
<feColorMatrix in="SourceAlpha" type="matrix" values="0 0 0 0 0 0 0 0 0 0 0 0 0 0 0 0 0 0 127 0" result="hardAlpha"/>
<feOffset dy="4"/>
<feGaussianBlur stdDeviation="5"/>
<feComposite in2="hardAlpha" operator="arithmetic" k2="-1" k3="1"/>
<feColorMatrix type="matrix" values="0 0 0 0 0 0 0 0 0 0 0 0 0 0 0 0 0 0 0.35 0"/>
<feBlend mode="normal" in2="shape" result="effect1_innerShadow_2_36"/>
</filter>
<filter id="filter4_d_2_36" x="-339.717" y="-174.962" width="1013.66" height="761.996" filterUnits="userSpaceOnUse" color-interpolation-filters="sRGB">
<feFlood flood-opacity="0" result="BackgroundImageFix"/>
<feColorMatrix in="SourceAlpha" type="matrix" values="0 0 0 0 0 0 0 0 0 0 0 0 0 0 0 0 0 0 127 0" result="hardAlpha"/>
<feOffset dy="4"/>
<feGaussianBlur stdDeviation="5"/>
<feComposite in2="hardAlpha" operator="out"/>
<feColorMatrix type="matrix" values="0 0 0 0 0 0 0 0 0 0 0 0 0 0 0 0 0 0 0.35 0"/>
<feBlend mode="normal" in2="BackgroundImageFix" result="effect1_dropShadow_2_36"/>
<feBlend mode="normal" in="SourceGraphic" in2="effect1_dropShadow_2_36" result="shape"/>
</filter>
<filter id="filter5_d_2_36" x="-338.051" y="-182.428" width="888.415" height="846.519" filterUnits="userSpaceOnUse" color-interpolation-filters="sRGB">
<feFlood flood-opacity="0" result="BackgroundImageFix"/>
<feColorMatrix in="SourceAlpha" type="matrix" values="0 0 0 0 0 0 0 0 0 0 0 0 0 0 0 0 0 0 127 0" result="hardAlpha"/>
<feOffset dy="4"/>
<feGaussianBlur stdDeviation="5"/>
<feComposite in2="hardAlpha" operator="out"/>
<feColorMatrix type="matrix" values="0 0 0 0 0 0 0 0 0 0 0 0 0 0 0 0 0 0 0.35 0"/>
<feBlend mode="normal" in2="BackgroundImageFix" result="effect1_dropShadow_2_36"/>
<feBlend mode="normal" in="SourceGraphic" in2="effect1_dropShadow_2_36" result="shape"/>
</filter>
<filter id="filter6_d_2_36" x="-370.24" y="-87.6785" width="567.968" height="622.516" filterUnits="userSpaceOnUse" color-interpolation-filters="sRGB">
<feFlood flood-opacity="0" result="BackgroundImageFix"/>
<feColorMatrix in="SourceAlpha" type="matrix" values="0 0 0 0 0 0 0 0 0 0 0 0 0 0 0 0 0 0 127 0" result="hardAlpha"/>
<feOffset dy="4"/>
<feGaussianBlur stdDeviation="5"/>
<feComposite in2="hardAlpha" operator="out"/>
<feColorMatrix type="matrix" values="0 0 0 0 0 0 0 0 0 0 0 0 0 0 0 0 0 0 0.35 0"/>
<feBlend mode="normal" in2="BackgroundImageFix" result="effect1_dropShadow_2_36"/>
<feBlend mode="normal" in="SourceGraphic" in2="effect1_dropShadow_2_36" result="shape"/>
</filter>
<filter id="filter7_d_2_36" x="150.907" y="-13.9001" width="229.027" height="268.155" filterUnits="userSpaceOnUse" color-interpolation-filters="sRGB">
<feFlood flood-opacity="0" result="BackgroundImageFix"/>
<feColorMatrix in="SourceAlpha" type="matrix" values="0 0 0 0 0 0 0 0 0 0 0 0 0 0 0 0 0 0 127 0" result="hardAlpha"/>
<feOffset dy="4"/>
<feGaussianBlur stdDeviation="5"/>
<feComposite in2="hardAlpha" operator="out"/>
<feColorMatrix type="matrix" values="0 0 0 0 0 0 0 0 0 0 0 0 0 0 0 0 0 0 0.35 0"/>
<feBlend mode="normal" in2="BackgroundImageFix" result="effect1_dropShadow_2_36"/>
<feBlend mode="normal" in="SourceGraphic" in2="effect1_dropShadow_2_36" result="shape"/>
</filter>
<filter id="filter8_d_2_36" x="300.706" y="13.6302" width="158.586" height="85.3049" filterUnits="userSpaceOnUse" color-interpolation-filters="sRGB">
<feFlood flood-opacity="0" result="BackgroundImageFix"/>
<feColorMatrix in="SourceAlpha" type="matrix" values="0 0 0 0 0 0 0 0 0 0 0 0 0 0 0 0 0 0 127 0" result="hardAlpha"/>
<feOffset dy="4"/>
<feGaussianBlur stdDeviation="5"/>
<feComposite in2="hardAlpha" operator="out"/>
<feColorMatrix type="matrix" values="0 0 0 0 0 0 0 0 0 0 0 0 0 0 0 0 0 0 0.35 0"/>
<feBlend mode="normal" in2="BackgroundImageFix" result="effect1_dropShadow_2_36"/>
<feBlend mode="normal" in="SourceGraphic" in2="effect1_dropShadow_2_36" result="shape"/>
</filter>
<filter id="filter9_d_2_36" x="-271.671" y="84.7497" width="435.533" height="331.106" filterUnits="userSpaceOnUse" color-interpolation-filters="sRGB">
<feFlood flood-opacity="0" result="BackgroundImageFix"/>
<feColorMatrix in="SourceAlpha" type="matrix" values="0 0 0 0 0 0 0 0 0 0 0 0 0 0 0 0 0 0 127 0" result="hardAlpha"/>
<feOffset dy="4"/>
<feGaussianBlur stdDeviation="5"/>
<feComposite in2="hardAlpha" operator="out"/>
<feColorMatrix type="matrix" values="0 0 0 0 0 0 0 0 0 0 0 0 0 0 0 0 0 0 0.35 0"/>
<feBlend mode="normal" in2="BackgroundImageFix" result="effect1_dropShadow_2_36"/>
<feBlend mode="normal" in="SourceGraphic" in2="effect1_dropShadow_2_36" result="shape"/>
</filter>
<filter id="filter10_d_2_36" x="-185.264" y="112.171" width="320.055" height="277.971" filterUnits="userSpaceOnUse" color-interpolation-filters="sRGB">
<feFlood flood-opacity="0" result="BackgroundImageFix"/>
<feColorMatrix in="SourceAlpha" type="matrix" values="0 0 0 0 0 0 0 0 0 0 0 0 0 0 0 0 0 0 127 0" result="hardAlpha"/>
<feOffset dy="4"/>
<feGaussianBlur stdDeviation="5"/>
<feComposite in2="hardAlpha" operator="out"/>
<feColorMatrix type="matrix" values="0 0 0 0 0 0 0 0 0 0 0 0 0 0 0 0 0 0 0.35 0"/>
<feBlend mode="normal" in2="BackgroundImageFix" result="effect1_dropShadow_2_36"/>
<feBlend mode="normal" in="SourceGraphic" in2="effect1_dropShadow_2_36" result="shape"/>
</filter>
<filter id="filter11_i_2_36" x="631.247" y="211.957" width="400.9" height="308.903" filterUnits="userSpaceOnUse" color-interpolation-filters="sRGB">
<feFlood flood-opacity="0" result="BackgroundImageFix"/>
<feBlend mode="normal" in="SourceGraphic" in2="BackgroundImageFix" result="shape"/>
<feColorMatrix in="SourceAlpha" type="matrix" values="0 0 0 0 0 0 0 0 0 0 0 0 0 0 0 0 0 0 127 0" result="hardAlpha"/>
<feOffset dy="4"/>
<feGaussianBlur stdDeviation="5"/>
<feComposite in2="hardAlpha" operator="arithmetic" k2="-1" k3="1"/>
<feColorMatrix type="matrix" values="0 0 0 0 0 0 0 0 0 0 0 0 0 0 0 0 0 0 0.35 0"/>
<feBlend mode="normal" in2="shape" result="effect1_innerShadow_2_36"/>
</filter>
<filter id="filter12_i_2_36" x="673.378" y="284.822" width="317.801" height="205.83" filterUnits="userSpaceOnUse" color-interpolation-filters="sRGB">
<feFlood flood-opacity="0" result="BackgroundImageFix"/>
<feBlend mode="normal" in="SourceGraphic" in2="BackgroundImageFix" result="shape"/>
<feColorMatrix in="SourceAlpha" type="matrix" values="0 0 0 0 0 0 0 0 0 0 0 0 0 0 0 0 0 0 127 0" result="hardAlpha"/>
<feOffset dy="4"/>
<feGaussianBlur stdDeviation="5"/>
<feComposite in2="hardAlpha" operator="arithmetic" k2="-1" k3="1"/>
<feColorMatrix type="matrix" values="0 0 0 0 0 0 0 0 0 0 0 0 0 0 0 0 0 0 0.35 0"/>
<feBlend mode="normal" in2="shape" result="effect1_innerShadow_2_36"/>
</filter>
<filter id="filter13_i_2_36" x="719.599" y="295.887" width="197.701" height="176.024" filterUnits="userSpaceOnUse" color-interpolation-filters="sRGB">
<feFlood flood-opacity="0" result="BackgroundImageFix"/>
<feBlend mode="normal" in="SourceGraphic" in2="BackgroundImageFix" result="shape"/>
<feColorMatrix in="SourceAlpha" type="matrix" values="0 0 0 0 0 0 0 0 0 0 0 0 0 0 0 0 0 0 127 0" result="hardAlpha"/>
<feOffset dy="4"/>
<feGaussianBlur stdDeviation="5"/>
<feComposite in2="hardAlpha" operator="arithmetic" k2="-1" k3="1"/>
<feColorMatrix type="matrix" values="0 0 0 0 0 0 0 0 0 0 0 0 0 0 0 0 0 0 0.35 0"/>
<feBlend mode="normal" in2="shape" result="effect1_innerShadow_2_36"/>
</filter>
<filter id="filter14_i_2_36" x="868.759" y="360.317" width="73.4943" height="84.7264" filterUnits="userSpaceOnUse" color-interpolation-filters="sRGB">
<feFlood flood-opacity="0" result="BackgroundImageFix"/>
<feBlend mode="normal" in="SourceGraphic" in2="BackgroundImageFix" result="shape"/>
<feColorMatrix in="SourceAlpha" type="matrix" values="0 0 0 0 0 0 0 0 0 0 0 0 0 0 0 0 0 0 127 0" result="hardAlpha"/>
<feOffset dy="4"/>
<feGaussianBlur stdDeviation="5"/>
<feComposite in2="hardAlpha" operator="arithmetic" k2="-1" k3="1"/>
<feColorMatrix type="matrix" values="0 0 0 0 0 0 0 0 0 0 0 0 0 0 0 0 0 0 0.35 0"/>
<feBlend mode="normal" in2="shape" result="effect1_innerShadow_2_36"/>
</filter>
<filter id="filter15_d_2_36" x="-721.785" y="493.191" width="1542.67" height="1122.08" filterUnits="userSpaceOnUse" color-interpolation-filters="sRGB">
<feFlood flood-opacity="0" result="BackgroundImageFix"/>
<feColorMatrix in="SourceAlpha" type="matrix" values="0 0 0 0 0 0 0 0 0 0 0 0 0 0 0 0 0 0 127 0" result="hardAlpha"/>
<feOffset dy="-4"/>
<feGaussianBlur stdDeviation="5"/>
<feComposite in2="hardAlpha" operator="out"/>
<feColorMatrix type="matrix" values="0 0 0 0 0 0 0 0 0 0 0 0 0 0 0 0 0 0 0.35 0"/>
<feBlend mode="normal" in2="BackgroundImageFix" result="effect1_dropShadow_2_36"/>
<feBlend mode="normal" in="SourceGraphic" in2="effect1_dropShadow_2_36" result="shape"/>
</filter>
<filter id="filter16_d_2_36" x="814.911" y="628.148" width="1044.8" height="443.854" filterUnits="userSpaceOnUse" color-interpolation-filters="sRGB">
<feFlood flood-opacity="0" result="BackgroundImageFix"/>
<feColorMatrix in="SourceAlpha" type="matrix" values="0 0 0 0 0 0 0 0 0 0 0 0 0 0 0 0 0 0 127 0" result="hardAlpha"/>
<feOffset dy="-4"/>
<feGaussianBlur stdDeviation="5"/>
<feComposite in2="hardAlpha" operator="out"/>
<feColorMatrix type="matrix" values="0 0 0 0 0 0 0 0 0 0 0 0 0 0 0 0 0 0 0.35 0"/>
<feBlend mode="normal" in2="BackgroundImageFix" result="effect1_dropShadow_2_36"/>
<feBlend mode="normal" in="SourceGraphic" in2="effect1_dropShadow_2_36" result="shape"/>
</filter>
<filter id="filter17_d_2_36" x="-385.601" y="642.619" width="1164.08" height="453.975" filterUnits="userSpaceOnUse" color-interpolation-filters="sRGB">
<feFlood flood-opacity="0" result="BackgroundImageFix"/>
<feColorMatrix in="SourceAlpha" type="matrix" values="0 0 0 0 0 0 0 0 0 0 0 0 0 0 0 0 0 0 127 0" result="hardAlpha"/>
<feOffset dy="-4"/>
<feGaussianBlur stdDeviation="5"/>
<feComposite in2="hardAlpha" operator="out"/>
<feColorMatrix type="matrix" values="0 0 0 0 0 0 0 0 0 0 0 0 0 0 0 0 0 0 0.35 0"/>
<feBlend mode="normal" in2="BackgroundImageFix" result="effect1_dropShadow_2_36"/>
<feBlend mode="normal" in="SourceGraphic" in2="effect1_dropShadow_2_36" result="shape"/>
</filter>
<filter id="filter18_d_2_36" x="-106.298" y="167.38" width="172.141" height="162.077" filterUnits="userSpaceOnUse" color-interpolation-filters="sRGB">
<feFlood flood-opacity="0" result="BackgroundImageFix"/>
<feColorMatrix in="SourceAlpha" type="matrix" values="0 0 0 0 0 0 0 0 0 0 0 0 0 0 0 0 0 0 127 0" result="hardAlpha"/>
<feOffset dy="4"/>
<feGaussianBlur stdDeviation="5"/>
<feComposite in2="hardAlpha" operator="out"/>
<feColorMatrix type="matrix" values="0 0 0 0 0 0 0 0 0 0 0 0 0 0 0 0 0 0 0.35 0"/>
<feBlend mode="normal" in2="BackgroundImageFix" result="effect1_dropShadow_2_36"/>
<feBlend mode="normal" in="SourceGraphic" in2="effect1_dropShadow_2_36" result="shape"/>
</filter>
<filter id="filter19_d_2_36" x="927.655" y="-277.464" width="1010.21" height="729.533" filterUnits="userSpaceOnUse" color-interpolation-filters="sRGB">
<feFlood flood-opacity="0" result="BackgroundImageFix"/>
<feColorMatrix in="SourceAlpha" type="matrix" values="0 0 0 0 0 0 0 0 0 0 0 0 0 0 0 0 0 0 127 0" result="hardAlpha"/>
<feOffset dy="4"/>
<feGaussianBlur stdDeviation="5"/>
<feComposite in2="hardAlpha" operator="out"/>
<feColorMatrix type="matrix" values="0 0 0 0 0 0 0 0 0 0 0 0 0 0 0 0 0 0 0.35 0"/>
<feBlend mode="normal" in2="BackgroundImageFix" result="effect1_dropShadow_2_36"/>
<feBlend mode="normal" in="SourceGraphic" in2="effect1_dropShadow_2_36" result="shape"/>
</filter>
<filter id="filter20_d_2_36" x="890.248" y="-295.052" width="546.525" height="521.091" filterUnits="userSpaceOnUse" color-interpolation-filters="sRGB">
<feFlood flood-opacity="0" result="BackgroundImageFix"/>
<feColorMatrix in="SourceAlpha" type="matrix" values="0 0 0 0 0 0 0 0 0 0 0 0 0 0 0 0 0 0 127 0" result="hardAlpha"/>
<feOffset dy="4"/>
<feGaussianBlur stdDeviation="5"/>
<feComposite in2="hardAlpha" operator="out"/>
<feColorMatrix type="matrix" values="0 0 0 0 0 0 0 0 0 0 0 0 0 0 0 0 0 0 0.35 0"/>
<feBlend mode="normal" in2="BackgroundImageFix" result="effect1_dropShadow_2_36"/>
<feBlend mode="normal" in="SourceGraphic" in2="effect1_dropShadow_2_36" result="shape"/>
</filter>
<filter id="filter21_d_2_36" x="1305.07" y="-97.2281" width="665.566" height="660.95" filterUnits="userSpaceOnUse" color-interpolation-filters="sRGB">
<feFlood flood-opacity="0" result="BackgroundImageFix"/>
<feColorMatrix in="SourceAlpha" type="matrix" values="0 0 0 0 0 0 0 0 0 0 0 0 0 0 0 0 0 0 127 0" result="hardAlpha"/>
<feOffset dy="4"/>
<feGaussianBlur stdDeviation="5"/>
<feComposite in2="hardAlpha" operator="out"/>
<feColorMatrix type="matrix" values="0 0 0 0 0 0 0 0 0 0 0 0 0 0 0 0 0 0 0.35 0"/>
<feBlend mode="normal" in2="BackgroundImageFix" result="effect1_dropShadow_2_36"/>
<feBlend mode="normal" in="SourceGraphic" in2="effect1_dropShadow_2_36" result="shape"/>
</filter>
<filter id="filter22_d_2_36" x="49.8261" y="0.152771" width="103.146" height="113.23" filterUnits="userSpaceOnUse" color-interpolation-filters="sRGB">
<feFlood flood-opacity="0" result="BackgroundImageFix"/>
<feColorMatrix in="SourceAlpha" type="matrix" values="0 0 0 0 0 0 0 0 0 0 0 0 0 0 0 0 0 0 127 0" result="hardAlpha"/>
<feOffset dy="4"/>
<feGaussianBlur stdDeviation="5"/>
<feComposite in2="hardAlpha" operator="out"/>
<feColorMatrix type="matrix" values="0 0 0 0 0 0 0 0 0 0 0 0 0 0 0 0 0 0 0.35 0"/>
<feBlend mode="normal" in2="BackgroundImageFix" result="effect1_dropShadow_2_36"/>
<feBlend mode="normal" in="SourceGraphic" in2="effect1_dropShadow_2_36" result="shape"/>
</filter>
<filter id="filter23_i_2_36" x="880.764" y="677.796" width="582.922" height="513.13" filterUnits="userSpaceOnUse" color-interpolation-filters="sRGB">
<feFlood flood-opacity="0" result="BackgroundImageFix"/>
<feBlend mode="normal" in="SourceGraphic" in2="BackgroundImageFix" result="shape"/>
<feColorMatrix in="SourceAlpha" type="matrix" values="0 0 0 0 0 0 0 0 0 0 0 0 0 0 0 0 0 0 127 0" result="hardAlpha"/>
<feOffset dy="4"/>
<feGaussianBlur stdDeviation="5"/>
<feComposite in2="hardAlpha" operator="arithmetic" k2="-1" k3="1"/>
<feColorMatrix type="matrix" values="0 0 0 0 0 0 0 0 0 0 0 0 0 0 0 0 0 0 0.35 0"/>
<feBlend mode="normal" in2="shape" result="effect1_innerShadow_2_36"/>
</filter>
<filter id="filter24_i_2_36" x="1279.43" y="732.88" width="254.127" height="193.325" filterUnits="userSpaceOnUse" color-interpolation-filters="sRGB">
<feFlood flood-opacity="0" result="BackgroundImageFix"/>
<feBlend mode="normal" in="SourceGraphic" in2="BackgroundImageFix" result="shape"/>
<feColorMatrix in="SourceAlpha" type="matrix" values="0 0 0 0 0 0 0 0 0 0 0 0 0 0 0 0 0 0 127 0" result="hardAlpha"/>
<feOffset dy="4"/>
<feGaussianBlur stdDeviation="5"/>
<feComposite in2="hardAlpha" operator="arithmetic" k2="-1" k3="1"/>
<feColorMatrix type="matrix" values="0 0 0 0 0 0 0 0 0 0 0 0 0 0 0 0 0 0 0.35 0"/>
<feBlend mode="normal" in2="shape" result="effect1_innerShadow_2_36"/>
</filter>
<filter id="filter25_i_2_36" x="833.847" y="707.365" width="519.331" height="618.949" filterUnits="userSpaceOnUse" color-interpolation-filters="sRGB">
<feFlood flood-opacity="0" result="BackgroundImageFix"/>
<feBlend mode="normal" in="SourceGraphic" in2="BackgroundImageFix" result="shape"/>
<feColorMatrix in="SourceAlpha" type="matrix" values="0 0 0 0 0 0 0 0 0 0 0 0 0 0 0 0 0 0 127 0" result="hardAlpha"/>
<feOffset dy="4"/>
<feGaussianBlur stdDeviation="5"/>
<feComposite in2="hardAlpha" operator="arithmetic" k2="-1" k3="1"/>
<feColorMatrix type="matrix" values="0 0 0 0 0 0 0 0 0 0 0 0 0 0 0 0 0 0 0.35 0"/>
<feBlend mode="normal" in2="shape" result="effect1_innerShadow_2_36"/>
</filter>
<filter id="filter26_d_2_36" x="-43.0723" y="682.756" width="739.386" height="767.522" filterUnits="userSpaceOnUse" color-interpolation-filters="sRGB">
<feFlood flood-opacity="0" result="BackgroundImageFix"/>
<feColorMatrix in="SourceAlpha" type="matrix" values="0 0 0 0 0 0 0 0 0 0 0 0 0 0 0 0 0 0 127 0" result="hardAlpha"/>
<feOffset dy="-4"/>
<feGaussianBlur stdDeviation="5"/>
<feComposite in2="hardAlpha" operator="out"/>
<feColorMatrix type="matrix" values="0 0 0 0 0 0 0 0 0 0 0 0 0 0 0 0 0 0 0.35 0"/>
<feBlend mode="normal" in2="BackgroundImageFix" result="effect1_dropShadow_2_36"/>
<feBlend mode="normal" in="SourceGraphic" in2="effect1_dropShadow_2_36" result="shape"/>
</filter>
<filter id="filter27_d_2_36" x="-0.262939" y="767.506" width="717.252" height="287.382" filterUnits="userSpaceOnUse" color-interpolation-filters="sRGB">
<feFlood flood-opacity="0" result="BackgroundImageFix"/>
<feColorMatrix in="SourceAlpha" type="matrix" values="0 0 0 0 0 0 0 0 0 0 0 0 0 0 0 0 0 0 127 0" result="hardAlpha"/>
<feOffset dy="-4"/>
<feGaussianBlur stdDeviation="5"/>
<feComposite in2="hardAlpha" operator="out"/>
<feColorMatrix type="matrix" values="0 0 0 0 0 0 0 0 0 0 0 0 0 0 0 0 0 0 0.35 0"/>
<feBlend mode="normal" in2="BackgroundImageFix" result="effect1_dropShadow_2_36"/>
<feBlend mode="normal" in="SourceGraphic" in2="effect1_dropShadow_2_36" result="shape"/>
</filter>
<clipPath id="clip0_2_36">
<rect width="1435" height="877" fill="white" transform="translate(0)"/>
</clipPath>
</defs>
</svg>
